/* XPM */
static char * C:\Users\Somic\Documents\MyDesign\MODIC\MODIC wallet\newpixmaps\bitcoin32_xpm[] = {
"32 32 608 2",
"  	c None",
". 	c #AD9EB3",
"+ 	c #B2A9BA",
"@ 	c #C5B9CC",
"# 	c #D1C9D9",
"$ 	c #E2DEF2",
"% 	c #EBE9FB",
"& 	c #DAD4E5",
"* 	c #BAB0C1",
"= 	c #998796",
"- 	c #A497A4",
"; 	c #AEA1AE",
"> 	c #AFA3B1",
", 	c #B8AEBE",
"' 	c #CAC1D2",
") 	c #CFC8D8",
"! 	c #938490",
"~ 	c #422A2D",
"{ 	c #1E0102",
"] 	c #190000",
"^ 	c #230606",
"/ 	c #341B1B",
"( 	c #3F2829",
"_ 	c #473033",
": 	c #90868F",
"< 	c #9A8C93",
"[ 	c #9F919E",
"} 	c #A296A1",
"| 	c #A99EAB",
"1 	c #BCB2C2",
"2 	c #A89BA8",
"3 	c #3C2226",
"4 	c #110000",
"5 	c #200404",
"6 	c #321617",
"7 	c #3A2124",
"8 	c #41272C",
"9 	c #462E32",
"0 	c #4C353B",
"a 	c #533C41",
"b 	c #564048",
"c 	c #5D464E",
"d 	c #887782",
"e 	c #8C7D85",
"f 	c #92818C",
"g 	c #958691",
"h 	c #9A8A97",
"i 	c #AD9EAD",
"j 	c #988A95",
"k 	c #260B0B",
"l 	c #1D0000",
"m 	c #2F1416",
"n 	c #391F22",
"o 	c #3F2427",
"p 	c #442B2D",
"q 	c #493135",
"r 	c #4E353B",
"s 	c #533D42",
"t 	c #594347",
"u 	c #604951",
"v 	c #645057",
"w 	c #765E66",
"x 	c #8A757F",
"y 	c #7F6E78",
"z 	c #84737C",
"A 	c #887683",
"B 	c #8C7C87",
"C 	c #958793",
"D 	c #A092A0",
"E 	c #361C1E",
"F 	c #1F0202",
"G 	c #33191B",
"H 	c #392123",
"I 	c #3F2629",
"J 	c #442A2F",
"K 	c #4D373C",
"L 	c #543D41",
"M 	c #584249",
"N 	c #5F4A50",
"O 	c #655057",
"P 	c #6B5860",
"Q 	c #705E66",
"R 	c #836F7A",
"S 	c #705C64",
"T 	c #736168",
"U 	c #77656D",
"V 	c #7B6A72",
"W 	c #7F6E77",
"X 	c #83747C",
"Y 	c #94848F",
"Z 	c #6F5A63",
"` 	c #311718",
" .	c #3B2124",
"..	c #402528",
"+.	c #432C2E",
"@.	c #4A3236",
"#.	c #4F363C",
"$.	c #543E43",
"%.	c #5A444A",
"&.	c #604A51",
"*.	c #645158",
"=.	c #6C565F",
"-.	c #725E68",
";.	c #79656E",
">.	c #7E6F79",
",.	c #937E8A",
"'.	c #635057",
").	c #67505A",
"!.	c #6B575F",
"~.	c #6F5C64",
"{.	c #736068",
"].	c #796770",
"^.	c #86747E",
"/.	c #2E1416",
"(.	c #0C0000",
"_.	c #290E0E",
":.	c #3A2023",
"<.	c #482F33",
"[.	c #4E383D",
"}.	c #553E42",
"|.	c #604B50",
"1.	c #665059",
"2.	c #6C5860",
"3.	c #725F67",
"4.	c #77666F",
"5.	c #7F6D76",
"6.	c #86747F",
"7.	c #8E818C",
"8.	c #9F8B96",
"9.	c #5C444E",
"0.	c #645056",
"a.	c #66535A",
"b.	c #69555D",
"c.	c #675159",
"d.	c #644F55",
"e.	c #78666E",
"f.	c #6E5B62",
"g.	c #A596A4",
"h.	c #BDB2C3",
"i.	c #91838D",
"j.	c #40262A",
"k.	c #341A1B",
"l.	c #452E31",
"m.	c #513A3F",
"n.	c #5B464D",
"o.	c #655158",
"p.	c #6E5960",
"q.	c #79676E",
"r.	c #86757F",
"s.	c #8C7E87",
"t.	c #958692",
"u.	c #A396A3",
"v.	c #4F393F",
"w.	c #553E43",
"x.	c #574248",
"y.	c #5C464B",
"z.	c #5C454C",
"A.	c #574046",
"B.	c #665157",
"C.	c #A295A3",
"D.	c #DAD4E7",
"E.	c #F2EDFF",
"F.	c #C0B6C6",
"G.	c #FFFFFF",
"H.	c #D6CFE3",
"I.	c #735F66",
"J.	c #7C6974",
"K.	c #6A555C",
"L.	c #553D43",
"M.	c #5E4950",
"N.	c #705D64",
"O.	c #786770",
"P.	c #806D78",
"Q.	c #86767E",
"R.	c #8D7D88",
"S.	c #948490",
"T.	c #9A8C98",
"U.	c #A69AA8",
"V.	c #A7A7B6",
"W.	c #483234",
"X.	c #4E363B",
"Y.	c #503A3F",
"Z.	c #51393D",
"`.	c #4B3438",
" +	c #715F68",
".+	c #B7ACB9",
"++	c #C8BDD0",
"@+	c #C7BCCD",
"#+	c #C2B9CA",
"$+	c #7A6772",
"%+	c #7D6B76",
"&+	c #D9D3E4",
"*+	c #F7F2FF",
"=+	c #7F6F77",
"-+	c #877680",
";+	c #8C7E88",
">+	c #948590",
",+	c #9B8B99",
"'+	c #A294A1",
")+	c #ACA0AF",
"!+	c #C0B8C8",
"~+	c #482B31",
"{+	c #422B2D",
"]+	c #472F33",
"^+	c #462E31",
"/+	c #43292D",
"(+	c #715E66",
"_+	c #AB9FAD",
":+	c #ADA1AE",
"<+	c #ABA0AF",
"[+	c #B0A6B4",
"}+	c #BEB2C4",
"|+	c #CCC2D4",
"1+	c #D9D1E3",
"2+	c #E8E2F6",
"3+	c #EEEAFF",
"4+	c #E0D8EC",
"5+	c #C2B9C9",
"6+	c #B0A2B1",
"7+	c #BBB0BF",
"8+	c #BFB3C2",
"9+	c #806E78",
"0+	c #867780",
"a+	c #8E7E89",
"b+	c #9C8D99",
"c+	c #A295A2",
"d+	c #A89DAA",
"e+	c #B4A9B7",
"f+	c #C8BED1",
"g+	c #7C5E68",
"h+	c #412328",
"i+	c #3D2427",
"j+	c #3E252A",
"k+	c #392122",
"l+	c #5E494F",
"m+	c #988894",
"n+	c #968994",
"o+	c #978A94",
"p+	c #9C8E9C",
"q+	c #A596A3",
"r+	c #C3B8C9",
"s+	c #C8BED0",
"t+	c #8A7A85",
"u+	c #33181A",
"v+	c #000000",
"w+	c #0B0000",
"x+	c #3E2729",
"y+	c #6E5A62",
"z+	c #83737C",
"A+	c #8D7F8A",
"B+	c #9C8E9A",
"C+	c #A396A2",
"D+	c #AA9CAB",
"E+	c #B1A5B4",
"F+	c #BCB2C1",
"G+	c #CFC7D9",
"H+	c #5E484F",
"I+	c #351A19",
"J+	c #371D20",
"K+	c #34191C",
"L+	c #85737C",
"M+	c #8B7985",
"N+	c #9E909D",
"O+	c #B0A5B3",
"P+	c #8B7A84",
"Q+	c #250909",
"R+	c #0A0000",
"S+	c #594448",
"T+	c #887881",
"U+	c #8D7D86",
"V+	c #8B7C86",
"W+	c #90818A",
"X+	c #968791",
"Y+	c #9E8D9B",
"Z+	c #A296A3",
"`+	c #AB9EAC",
" @	c #B2A6B4",
".@	c #B9AEBD",
"+@	c #C9C0D1",
"@@	c #CBC4D4",
"#@	c #564244",
"$@	c #2C1213",
"%@	c #311618",
"&@	c #2D1012",
"*@	c #594449",
"=@	c #76636C",
"-@	c #746169",
";@	c #79666F",
">@	c #7E6E76",
",@	c #897984",
"'@	c #9B8C98",
")@	c #5E4850",
"!@	c #080000",
"~@	c #090000",
"{@	c #250A0A",
"]@	c #331819",
"^@	c #564045",
"/@	c #867680",
"(@	c #8A7A84",
"_@	c #90808B",
":@	c #968893",
"<@	c #9D8F9A",
"[@	c #AB9FAB",
"}@	c #B2A7B5",
"|@	c #BAAFBE",
"1@	c #C2B8C8",
"2@	c #D9D2E5",
"3@	c #B1A5B5",
"4@	c #59434D",
"5@	c #2A0A0D",
"6@	c #280E0E",
"7@	c #301316",
"8@	c #624C53",
"9@	c #634F55",
"0@	c #675259",
"a@	c #6B5960",
"b@	c #74626A",
"c@	c #85767F",
"d@	c #543D42",
"e@	c #130000",
"f@	c #41272B",
"g@	c #3B2326",
"h@	c #7E6D76",
"i@	c #8B7983",
"j@	c #90818C",
"k@	c #978894",
"l@	c #9E909C",
"m@	c #A596A5",
"n@	c #AC9FAD",
"o@	c #B3A7B6",
"p@	c #BAAEC0",
"q@	c #C0B8C6",
"r@	c #CDC4D4",
"s@	c #E5DEF2",
"t@	c #6E5C64",
"u@	c #230807",
"v@	c #230607",
"w@	c #381D21",
"x@	c #574245",
"y@	c #574044",
"z@	c #5B454B",
"A@	c #624B53",
"B@	c #6E5A61",
"C@	c #150000",
"D@	c #1A0000",
"E@	c #452D31",
"F@	c #482E32",
"G@	c #8D7C88",
"H@	c #8C7D87",
"I@	c #91818C",
"J@	c #988994",
"K@	c #9E8F9D",
"L@	c #A598A4",
"M@	c #ACA0AE",
"N@	c #B4A8B7",
"O@	c #BBB0BE",
"P@	c #C9C2D2",
"Q@	c #DED8EA",
"R@	c #CEC4D7",
"S@	c #6E5B63",
"T@	c #83727F",
"U@	c #1E0404",
"V@	c #1E0100",
"W@	c #3B2123",
"X@	c #483134",
"Y@	c #4A3137",
"Z@	c #50383D",
"`@	c #564046",
" #	c #614D52",
".#	c #2C1012",
"+#	c #1F0101",
"@#	c #351B1C",
"##	c #543E42",
"$#	c #4F383D",
"%#	c #523A3F",
"&#	c #91838C",
"*#	c #988895",
"=#	c #9F919C",
"-#	c #A699A6",
";#	c #ADA1AF",
">#	c #B4A9B6",
",#	c #BAB1C0",
"'#	c #C3B9C9",
")#	c #D9D2E4",
"!#	c #E8E2F5",
"~#	c #92828D",
"{#	c #7C6B74",
"]#	c #948893",
"^#	c #351A1D",
"/#	c #3B2324",
"(#	c #3E2628",
"_#	c #452C30",
":#	c #4D3539",
"<#	c #493034",
"[#	c #240809",
"}#	c #2D1212",
"|#	c #2D1113",
"1#	c #472F34",
"2#	c #5E474E",
"3#	c #5A4449",
"4#	c #8C7E89",
"5#	c #A0919E",
"6#	c #9F939E",
"7#	c #A698A7",
"8#	c #B5A9B8",
"9#	c #BCB0C1",
"0#	c #C3BACA",
"a#	c #D7D0E3",
"b#	c #EAE3F7",
"c#	c #B4A8B8",
"d#	c #806F78",
"e#	c #938590",
"f#	c #A094A1",
"g#	c #240101",
"h#	c #1C0100",
"i#	c #2D1112",
"j#	c #301517",
"k#	c #351B1D",
"l#	c #41292C",
"m#	c #381E21",
"n#	c #301418",
"o#	c #381E1F",
"p#	c #34191B",
"q#	c #553E44",
"r#	c #675359",
"s#	c #644F58",
"t#	c #624C54",
"u#	c #78656E",
"v#	c #A89BAA",
"w#	c #AB9EAB",
"x#	c #AEA3B1",
"y#	c #B5AAB9",
"z#	c #BDB2C2",
"A#	c #C4BACA",
"B#	c #CCC5D4",
"C#	c #DAD2E6",
"D#	c #E8E3F7",
"E#	c #C0B7C6",
"F#	c #958792",
"G#	c #A79AA9",
"H#	c #A498A4",
"I#	c #1C0000",
"J#	c #220406",
"K#	c #260A0B",
"L#	c #2A1010",
"M#	c #301415",
"N#	c #34181A",
"O#	c #3C2326",
"P#	c #3F262B",
"Q#	c #3D2327",
"R#	c #5E484E",
"S#	c #715E67",
"T#	c #705C63",
"U#	c #725F66",
"V#	c #B4AAB9",
"W#	c #BFB3C3",
"X#	c #C2B9C8",
"Y#	c #C8C0D0",
"Z#	c #D3CBDC",
"`#	c #E0DAED",
" $	c #E2DBED",
".$	c #B6ABBA",
"+$	c #928490",
"@$	c #9D8F9C",
"#$	c #B8B0C1",
"$$	c #998C94",
"%$	c #1E0101",
"&$	c #1E0000",
"*$	c #210405",
"=$	c #432B2E",
"-$	c #7F6C76",
";$	c #7B6A73",
">$	c #7F6C75",
",$	c #806F77",
"'$	c #AC9FAE",
")$	c #CCC6D7",
"!$	c #CEC5D5",
"~$	c #A295A1",
"{$	c #9C8D98",
"]$	c #B0A4B2",
"^$	c #BAAEBE",
"/$	c #C8C1D2",
"($	c #1E0202",
"_$	c #1B0000",
":$	c #4B343A",
"<$	c #543D44",
"[$	c #5C464D",
"}$	c #887882",
"|$	c #887983",
"1$	c #8A7A83",
"2$	c #8E7F88",
"3$	c #91818D",
"4$	c #92818E",
"5$	c #958591",
"6$	c #998B98",
"7$	c #9C8D9A",
"8$	c #A093A0",
"9$	c #A99CAC",
"0$	c #B3A6B5",
"a$	c #B8ADBC",
"b$	c #BDB4C4",
"c$	c #CCC6D8",
"d$	c #BEB3C4",
"e$	c #1D0202",
"f$	c #4D3639",
"g$	c #614C53",
"h$	c #82727A",
"i$	c #998997",
"j$	c #A195A2",
"k$	c #A79AA6",
"l$	c #AA9DAB",
"m$	c #AEA2AF",
"n$	c #B2A7B6",
"o$	c #BCB2C0",
"p$	c #C1B7C7",
"q$	c #C5BDCC",
"r$	c #D1C9DB",
"s$	c #E1DCF0",
"t$	c #210303",
"u$	c #140000",
"v$	c #746069",
"w$	c #6A565D",
"x$	c #6D5860",
"y$	c #6D5A62",
"z$	c #736069",
"A$	c #A89CAA",
"B$	c #A79AA8",
"C$	c #B3A8B5",
"D$	c #C5BBCC",
"E$	c #C8C0D1",
"F$	c #CEC5D8",
"G$	c #D7D0E2",
"H$	c #EAE8FE",
"I$	c #BEB4C3",
"J$	c #230101",
"K$	c #1F0302",
"L$	c #7B6972",
"M$	c #7A666F",
"N$	c #7C6A73",
"O$	c #7C6A72",
"P$	c #867580",
"Q$	c #BAAFC0",
"R$	c #C3BBCC",
"S$	c #CCC5D6",
"T$	c #D2CADC",
"U$	c #D9D0E2",
"V$	c #F3F1FE",
"W$	c #E2DBEE",
"X$	c #240202",
"Y$	c #0F0000",
"Z$	c #513A40",
"`$	c #887982",
" %	c #897A83",
".%	c #8E7C87",
"+%	c #928290",
"@%	c #AFA4B0",
"#%	c #C7BFD0",
"$%	c #D0C8DA",
"%%	c #D3CCDD",
"&%	c #D7CFE2",
"*%	c #DAD3E6",
"=%	c #E0D9ED",
"-%	c #E6E1F4",
";%	c #F0ECFF",
">%	c #F7F5FE",
",%	c #E2DEEF",
"'%	c #210101",
")%	c #1C0101",
"!%	c #170000",
"~%	c #A799A6",
"{%	c #9B8C99",
"]%	c #9B8B97",
"^%	c #A1939F",
"/%	c #CFC8D9",
"(%	c #DBD5E6",
"_%	c #E0DCEE",
":%	c #E4DFF1",
"<%	c #E7E2F6",
"[%	c #E9E6F9",
"}%	c #D0C5D5",
"|%	c #210103",
"1%	c #180000",
"2%	c #84737D",
"3%	c #BDB3C3",
"4%	c #B3A8B8",
"5%	c #AEA3B2",
"6%	c #B6ACBB",
"7%	c #BBB2C1",
"8%	c #C2B8C9",
"9%	c #CBC4D5",
"0%	c #D8D3E7",
"a%	c #E3DFF6",
"b%	c #B9B0BE",
"c%	c #210000",
"d%	c #BEB2C2",
"e%	c #DAD4E6",
"f%	c #D6D0E0",
"g%	c #D3CCDC",
"h%	c #EAE6F9",
"i%	c #EFEDFE",
"j%	c #D8D1E1",
"k%	c #57424A",
"l%	c #9B8F9D",
"m%	c #C5BDCF",
"n%	c #D8D2E6",
"o%	c #E2DEF1",
"p%	c #E3DDEF",
"q%	c #C4BCCF",
"                                                                ",
"                      . + @ # $ % & * =                         ",
"                  - ; > , ' ) ! ~ { ] ^ / ( _                   ",
"              : < [ } | 1 2 3 4 5 6 7 8 9 0 a b c               ",
"            d e f g h i j k l m n o p q r s t u v w             ",
"          x y z A B C D E F G H I J q K L M N O P Q R           ",
"        S T U V W X Y Z l `  ...+.@.#.$.%.&.*.=.-.;.>.,.        ",
"      '.).!.~.{.U ].^./.(.l _.:.<.[.}.%.|.1.2.3.4.5.6.7.8.      ",
"      9.&.0.a.b.c.d.e.f.g.h.i.j.k.l.m.n.o.p.{.q.W r.s.t.u.      ",
"    v.w.x.y.z.A.B.C.D.E.# F.G.H.I.J.K.L.M.N.O.P.Q.R.S.T.U.V.    ",
"    W.X.Y.Z.`. +.+++@+#+$+%+&+*+G.G.G.E.d 3.=+-+;+>+,+'+)+!+    ",
"  ~+{+]+^+/+(+_+:+<+[+}+|+1+2+3+4+5+6+7+8+9+0+a+g b+c+d+e+f+g+  ",
"  h+i+j+k+l+m+n+o+p+q+> r+s+t+u+v+v+w+x+y+z+A+t.B+C+D+E+F+G+H+  ",
"  I+J+K+I W L+6.M+f N+O+P+Q+v+R+5 S+T+U+V+W+X+Y+Z+`+ @.@+@@@#@  ",
"  $@%@&@*@=@-@;@>@,@'@)@!@~@{@]@^@,@/@(@_@:@<@- [@}@|@1@2@3@4@  ",
"  5@6@7@8@9@0@a@b@c@d@(.e@_.f@g@h@,@i@j@k@l@m@n@o@p@q@r@s@^.t@  ",
"  u@v@w@x@y@z@A@B@|.C@D@^ E@F@@.G@H@I@J@K@L@M@N@O@1@P@Q@R@S@T@  ",
"  U@V@W@X@Y@Z@`@ #.#+#k @###$#%#&#>+*#=#-#;#>#,#'#' )#!#~#{#]#  ",
"  l l ^#/#(#_#:#<#[#}#|#1#2#3#^@4#5#6#7#; 8#9#0#|+a#b#c#d#e#f#  ",
"  g#h#i#j#k#:.l#m#n#o#p#q#r#s#t#u#v#w#x#y#z#A#B#C#D#E#(@F#G#H#  ",
"    I#J#K#L#M#N#:.O#P#Q#R#S#T#U#N.j@V#W#X#Y#Z#`# $.$+$@$G##$$$  ",
"    %$l &$*$[#k =$1#@._ N -$;$>$,$h@a+'$'#)$!$z#~${$U.]$^$/$    ",
"    U@($%$l l _$:$s d@<$[$}$|$1$2$j@3$4$5$6$7$8$9$0$a$b$c$d$    ",
"      e$F F %$C@f$g$l+g$u h$i$k@T.N+j$k$l$m$n$a$o$p$q$r$s$      ",
"      t$%$F F u$i+v$w$x$y$z$<@A$B$`+> C$a$9#F.D$E$F$G$H$I$      ",
"        J$($F ] K$L$V M$N$O$P$_+O@Q$z#F.R$+@S$T$U$s$V$W$        ",
"          X$($l Y$Z$e#`$ %B .%+%@%#%$%%%&%*%=%-%;%>%,%          ",
"            '%)%!%u$L$~%{%]%@$5#^%w#1 /%(%_%:%<%[%}%            ",
"              |%] 4 1%2%3%4%5%]$N@6%, 7%8%9%0%a%b%              ",
"                  c%(.w+R#d%e%f%T$g%&%`#h%i%j%                  ",
"                        v+C@k%l%m%n%o%p%q%                      ",
"                                                                "};
