/* XPM */
static char * C:\Users\Somic\Documents\MyDesign\MODIC\MODIC wallet\newpixmaps\bitcoin16_xpm[] = {
"16 16 174 2",
"  	c None",
". 	c #E2DDF2",
"+ 	c #DBD0E2",
"@ 	c #A1939D",
"# 	c #B6ABB8",
"$ 	c #BBB1C0",
"% 	c #6B575E",
"& 	c #2E1313",
"* 	c #2E1315",
"= 	c #3D2227",
"- 	c #4C3538",
"; 	c #8C7A84",
"> 	c #92828F",
", 	c #A294A1",
"' 	c #40282A",
") 	c #160000",
"! 	c #301617",
"~ 	c #432B2E",
"{ 	c #523A3F",
"] 	c #5E484F",
"^ 	c #6C545D",
"/ 	c #6F5761",
"( 	c #726168",
"_ 	c #786870",
": 	c #5F4B50",
"< 	c #0D0000",
"[ 	c #230608",
"} 	c #391F21",
"| 	c #4F373B",
"1 	c #5D474E",
"2 	c #6C5860",
"3 	c #79676F",
"4 	c #8A7782",
"5 	c #513E44",
"6 	c #5A4248",
"7 	c #584149",
"8 	c #7B6771",
"9 	c #B2A6B4",
"0 	c #B7ABBA",
"a 	c #AFA4B3",
"b 	c #69545A",
"c 	c #675259",
"d 	c #634D54",
"e 	c #76646D",
"f 	c #86767F",
"g 	c #958792",
"h 	c #A394A3",
"i 	c #43292E",
"j 	c #462D31",
"k 	c #78676E",
"l 	c #BFB5C4",
"m 	c #D4CDDF",
"n 	c #CDC4D4",
"o 	c #FFFFFF",
"p 	c #F6F2FF",
"q 	c #DED7EA",
"r 	c #91828E",
"s 	c #84757E",
"t 	c #938491",
"u 	c #A599A5",
"v 	c #33171A",
"w 	c #584046",
"x 	c #968793",
"y 	c #A194A0",
"z 	c #B6AAB9",
"A 	c #887883",
"B 	c #270B0C",
"C 	c #120000",
"D 	c #523C40",
"E 	c #816F78",
"F 	c #94858F",
"G 	c #A296A3",
"H 	c #B7AEBC",
"I 	c #C6BFD0",
"J 	c #280C0A",
"K 	c #2C0F12",
"L 	c #665158",
"M 	c #78656E",
"N 	c #887680",
"O 	c #4E373C",
"P 	c #020000",
"Q 	c #1E0000",
"R 	c #726067",
"S 	c #91828D",
"T 	c #988A94",
"U 	c #A396A3",
"V 	c #B4A7B7",
"W 	c #D0C7D9",
"X 	c #C2B8C8",
"Y 	c #53393D",
"Z 	c #1C0101",
"` 	c #2A0F11",
" .	c #533D42",
"..	c #5D484D",
"+.	c #533C42",
"@.	c #100000",
"#.	c #321618",
"$.	c #4F373D",
"%.	c #93848D",
"&.	c #9C8D9A",
"*.	c #A697A6",
"=.	c #B4A8B7",
"-.	c #C8C0D1",
";.	c #E2DDF1",
">.	c #998C97",
",.	c #685259",
"'.	c #240808",
").	c #3A2022",
"!.	c #432A2F",
"~.	c #34191B",
"{.	c #280C0C",
"].	c #564045",
"^.	c #B0A4B2",
"/.	c #BAB0BD",
"(.	c #CBC3D4",
"_.	c #E2DCEE",
":.	c #BCB1C1",
"<.	c #92838F",
"[.	c #1D0000",
"}.	c #220504",
"|.	c #290C0E",
"1.	c #40252A",
"2.	c #40272A",
"3.	c #6B5860",
"4.	c #75646B",
"5.	c #7F6D76",
"6.	c #AA9EAD",
"7.	c #C7BFCE",
"8.	c #D0C8D9",
"9.	c #B6ACBA",
"0.	c #9E929F",
"a.	c #B6AFBC",
"b.	c #1F0000",
"c.	c #1B0000",
"d.	c #170000",
"e.	c #543D41",
"f.	c #5A444A",
"g.	c #725F67",
"h.	c #948791",
"i.	c #92828E",
"j.	c #968693",
"k.	c #9F929F",
"l.	c #B0A3B2",
"m.	c #D6CBDB",
"n.	c #210101",
"o.	c #130000",
"p.	c #543C40",
"q.	c #7F6C75",
"r.	c #77646C",
"s.	c #9E8F9C",
"t.	c #B7ACBB",
"u.	c #BAB2C1",
"v.	c #CDC4D6",
"w.	c #E0DAED",
"x.	c #ECE5FB",
"y.	c #190000",
"z.	c #250809",
"A.	c #938591",
"B.	c #A093A0",
"C.	c #9B8B98",
"D.	c #B2A5B5",
"E.	c #CFC7D7",
"F.	c #E1DAEE",
"G.	c #ECEBFE",
"H.	c #F2F0FE",
"I.	c #331B1C",
"J.	c #A393A2",
"K.	c #CCC5D6",
"L.	c #D2C9DC",
"M.	c #D1CCDF",
"N.	c #DEDAEC",
"O.	c #E5D8EC",
"P.	c #5E4A4D",
"Q.	c #94828A",
"              . +               ",
"        @ # $ % & * = -         ",
"      ; > , ' ) ! ~ { ] ^       ",
"    / ( _ : < [ } | 1 2 3 4     ",
"  5 6 7 8 9 0 a b c d e f g h   ",
"  i j k l m n o p q r s t u l   ",
"  v w x y z A B C D E F G H I   ",
"J K L M N O P Q R S T U V W X Y ",
"Z `  ...+.@.#.$.%.&.*.=.-.;.>.,.",
"  '.).!.~.{.].1 F ^./.(._.:.<.  ",
"  [.}.|.1.2.3.4.5.6.7.8.9.0.a.  ",
"  b.c.d.e.f.g.h.i.j.k.u l.-.m.  ",
"    n.o.p.q.r.s.t.u.X v.w.x.    ",
"      y.z.A.B.C.D.E.F.G.H.      ",
"        < I.J.K.L.M.N.O.        ",
"              P.Q.              "};
